<?xml version="1.0" standalone="no"?>
<!DOCTYPE svg PUBLIC "-//W3C//DTD SVG 20010904//EN"
 "http://www.w3.org/TR/2001/REC-SVG-20010904/DTD/svg10.dtd">
<svg version="1.0" xmlns="http://www.w3.org/2000/svg"
 width="420.000000pt" height="420.000000pt" viewBox="0 0 420.000000 420.000000"
 preserveAspectRatio="xMidYMid meet">

<g transform="translate(0.000000,420.000000) scale(0.100000,-0.100000)"
fill="#000000" stroke="none">
<path d="M0 2100 l0 -2100 2100 0 2100 0 0 2100 0 2100 -2100 0 -2100 0 0
-2100z m2873 752 c31 -48 61 -136 82 -237 9 -44 21 -98 26 -120 5 -22 15 -120
21 -218 9 -141 9 -193 -1 -255 -19 -112 -33 -162 -48 -162 -7 0 -24 17 -37 38
-30 47 -96 110 -161 152 -27 18 -59 44 -70 58 -14 16 -29 23 -45 20 -17 -2
-24 1 -22 11 5 24 -18 40 -49 34 -34 -6 -37 6 -9 32 14 13 17 22 10 30 -8 10
-19 8 -50 -8 -21 -12 -42 -18 -46 -14 -8 7 18 64 74 162 15 28 52 95 82 150
29 55 63 114 75 130 13 17 37 59 55 95 36 71 78 140 85 140 3 0 15 -17 28 -38z
m-1577 -50 c60 -54 129 -147 236 -317 116 -184 162 -265 155 -271 -3 -3 -18 1
-34 10 -41 21 -68 4 -35 -23 29 -25 28 -27 -9 -35 -24 -4 -29 -10 -25 -24 5
-13 -1 -22 -19 -30 -14 -6 -25 -18 -25 -26 0 -8 -29 -35 -64 -60 -36 -25 -98
-82 -138 -126 -40 -44 -78 -80 -84 -80 -19 0 -48 86 -73 220 -27 148 -20 488
14 652 16 81 40 148 53 148 4 0 25 -17 48 -38z m1436 -962 c29 -11 62 -28 74
-38 28 -24 88 -112 103 -153 7 -19 17 -42 22 -51 11 -22 -4 -95 -32 -150 -16
-32 -33 -46 -87 -71 -60 -29 -77 -32 -157 -32 -147 0 -209 24 -278 110 -26 33
-54 61 -62 63 -22 5 -18 22 5 22 14 0 22 11 30 43 23 85 35 113 72 165 74 101
194 136 310 92z m-1009 -12 c22 -7 63 -33 92 -59 48 -44 53 -55 74 -133 12
-47 29 -90 37 -97 13 -10 12 -14 -5 -30 -10 -10 -22 -32 -26 -49 -9 -40 -92
-107 -143 -115 -20 -4 -47 -10 -60 -16 -13 -5 -54 -9 -92 -9 -126 0 -217 53
-270 159 -25 50 -21 82 24 182 34 78 71 118 141 150 67 32 155 39 228 17z
m483 -462 c19 -15 19 -15 -1 -30 -32 -25 -62 -29 -110 -16 -76 21 -50 59 41
60 28 0 59 -6 70 -14z"/>
<path d="M2507 1668 c-9 -7 -21 -37 -27 -65 -8 -44 -6 -60 9 -96 36 -84 80
-67 88 34 3 49 0 72 -14 98 -21 40 -32 46 -56 29z m23 -123 c13 -16 6 -35 -15
-35 -18 0 -28 17 -21 35 7 19 20 19 36 0z"/>
<path d="M1686 1654 c-9 -8 -18 -26 -21 -40 -3 -13 -7 -35 -10 -49 -8 -35 4
-51 20 -28 11 14 16 15 26 6 16 -16 3 -47 -16 -39 -22 8 -19 -37 3 -57 29 -27
52 -21 68 18 26 63 11 175 -26 195 -24 13 -26 13 -44 -6z"/>
</g>
</svg>
